<svg width="1050" height="660" viewBox="0 0 1050 660" xmlns="http://www.w3.org/2000/svg">
  <rect width="1050" height="660" fill="#FFFFFF"/>
  <text x="80.00" y="36.00" text-anchor="start" fill="#1E293B" font-family="Helvetica Neue,Arial,sans-serif" font-size="20" font-weight="700">Forecast Error Distribution</text>
  <text x="80.00" y="58.00" text-anchor="start" fill="#475569" font-family="Helvetica Neue,Arial,sans-serif" font-size="13" font-weight="normal">Forecast error = realized return − expected return  |  994 portfolios  |  10-ticker baseline</text>
  <rect x="80.00" y="100.00" width="910.00" height="490.00" fill="#F8FAFC" stroke="#CBD5E1" stroke-width="1"/>
  <line x1="80.00" y1="590.00" x2="990.00" y2="590.00" stroke="#E2E8F0" stroke-width="1"/>
  <text x="72.00" y="594.00" text-anchor="end" fill="#475569" font-family="Helvetica Neue,Arial,sans-serif" font-size="12" font-weight="normal">0</text>
  <line x1="80.00" y1="435.68" x2="990.00" y2="435.68" stroke="#E2E8F0" stroke-width="1"/>
  <text x="72.00" y="439.68" text-anchor="end" fill="#475569" font-family="Helvetica Neue,Arial,sans-serif" font-size="12" font-weight="normal">50</text>
  <line x1="80.00" y1="281.36" x2="990.00" y2="281.36" stroke="#E2E8F0" stroke-width="1"/>
  <text x="72.00" y="285.36" text-anchor="end" fill="#475569" font-family="Helvetica Neue,Arial,sans-serif" font-size="12" font-weight="normal">100</text>
  <line x1="80.00" y1="127.04" x2="990.00" y2="127.04" stroke="#E2E8F0" stroke-width="1"/>
  <text x="72.00" y="131.04" text-anchor="end" fill="#475569" font-family="Helvetica Neue,Arial,sans-serif" font-size="12" font-weight="normal">150</text>
  <line x1="80.00" y1="-27.28" x2="990.00" y2="-27.28" stroke="#E2E8F0" stroke-width="1"/>
  <text x="72.00" y="-23.28" text-anchor="end" fill="#475569" font-family="Helvetica Neue,Arial,sans-serif" font-size="12" font-weight="normal">200</text>
  <line x1="171.00" y1="100.00" x2="171.00" y2="590.00" stroke="#E2E8F0" stroke-width="1"/>
  <text x="171.00" y="606.00" text-anchor="middle" fill="#475569" font-family="Helvetica Neue,Arial,sans-serif" font-size="12" font-weight="normal">-40%</text>
  <line x1="353.00" y1="100.00" x2="353.00" y2="590.00" stroke="#E2E8F0" stroke-width="1"/>
  <text x="353.00" y="606.00" text-anchor="middle" fill="#475569" font-family="Helvetica Neue,Arial,sans-serif" font-size="12" font-weight="normal">-20%</text>
  <line x1="535.00" y1="100.00" x2="535.00" y2="590.00" stroke="#E2E8F0" stroke-width="1"/>
  <text x="535.00" y="606.00" text-anchor="middle" fill="#475569" font-family="Helvetica Neue,Arial,sans-serif" font-size="12" font-weight="normal">0%</text>
  <line x1="717.00" y1="100.00" x2="717.00" y2="590.00" stroke="#E2E8F0" stroke-width="1"/>
  <text x="717.00" y="606.00" text-anchor="middle" fill="#475569" font-family="Helvetica Neue,Arial,sans-serif" font-size="12" font-weight="normal">20%</text>
  <line x1="899.00" y1="100.00" x2="899.00" y2="590.00" stroke="#E2E8F0" stroke-width="1"/>
  <text x="899.00" y="606.00" text-anchor="middle" fill="#475569" font-family="Helvetica Neue,Arial,sans-serif" font-size="12" font-weight="normal">40%</text>
  <line x1="535.00" y1="100" x2="535.00" y2="590" stroke="#1E293B" stroke-width="1.5" stroke-dasharray="5 3" opacity="0.6"/>
  <rect x="81.00" y="574.57" width="39.36" height="15.43" fill="#DC2626" rx="1"/>
  <rect x="122.36" y="574.57" width="39.36" height="15.43" fill="#DC2626" rx="1"/>
  <rect x="163.73" y="549.88" width="39.36" height="40.12" fill="#DC2626" rx="1"/>
  <rect x="205.09" y="537.53" width="39.36" height="52.47" fill="#DC2626" rx="1"/>
  <rect x="246.45" y="432.59" width="39.36" height="157.41" fill="#DC2626" rx="1"/>
  <rect x="287.82" y="398.64" width="39.36" height="191.36" fill="#DC2626" rx="1"/>
  <rect x="329.18" y="256.67" width="39.36" height="333.33" fill="#DC2626" rx="1"/>
  <rect x="370.55" y="213.46" width="39.36" height="376.54" fill="#DC2626" rx="1"/>
  <rect x="411.91" y="136.30" width="39.36" height="453.70" fill="#DC2626" rx="1"/>
  <rect x="453.27" y="238.15" width="39.36" height="351.85" fill="#DC2626" rx="1"/>
  <rect x="494.64" y="228.89" width="39.36" height="361.11" fill="#DC2626" rx="1"/>
  <rect x="536.00" y="293.70" width="39.36" height="296.30" fill="#16A34A" rx="1"/>
  <rect x="577.36" y="410.99" width="39.36" height="179.01" fill="#16A34A" rx="1"/>
  <rect x="618.73" y="457.28" width="39.36" height="132.72" fill="#16A34A" rx="1"/>
  <rect x="660.09" y="537.53" width="39.36" height="52.47" fill="#16A34A" rx="1"/>
  <rect x="701.45" y="574.57" width="39.36" height="15.43" fill="#16A34A" rx="1"/>
  <rect x="742.82" y="571.48" width="39.36" height="18.52" fill="#16A34A" rx="1"/>
  <rect x="784.18" y="590.00" width="39.36" height="1.00" fill="#16A34A" rx="1"/>
  <rect x="825.55" y="577.65" width="39.36" height="12.35" fill="#16A34A" rx="1"/>
  <rect x="866.91" y="586.91" width="39.36" height="3.09" fill="#16A34A" rx="1"/>
  <rect x="908.27" y="586.91" width="39.36" height="3.09" fill="#16A34A" rx="1"/>
  <rect x="949.64" y="583.83" width="39.36" height="6.17" fill="#16A34A" rx="1"/>
  <rect x="760.00" y="114" width="218" height="54" fill="#FFFFFF" stroke="#CBD5E1" stroke-width="1" rx="4"/>
  <text x="770.00" y="132.00" text-anchor="start" fill="#1E293B" font-family="Helvetica Neue,Arial,sans-serif" font-size="12" font-weight="600">Mean error:  -9.55%</text>
  <text x="770.00" y="152.00" text-anchor="start" fill="#1E293B" font-family="Helvetica Neue,Arial,sans-serif" font-size="12" font-weight="600">Std. deviation:  13.62%</text>
  <text x="535.00" y="642.00" text-anchor="middle" fill="#1E293B" font-family="Helvetica Neue,Arial,sans-serif" font-size="14" font-weight="600">Forecast error (realized return minus expected return)</text>
  <text x="20.00" y="345.00" text-anchor="middle" fill="#1E293B" font-family="Helvetica Neue,Arial,sans-serif" font-size="13" font-weight="600" transform="rotate(-90 20.00 345.00)">Number of portfolios</text>
</svg>
